<?xml version="1.0" standalone="no"?>
<!DOCTYPE svg PUBLIC "-//W3C//DTD SVG 20010904//EN"
 "http://www.w3.org/TR/2001/REC-SVG-20010904/DTD/svg10.dtd">
<svg version="1.0" xmlns="http://www.w3.org/2000/svg"
 width="612.000000pt" height="536.000000pt" viewBox="0 0 612.000000 536.000000"
 preserveAspectRatio="xMidYMid meet">

<g transform="translate(0.000000,536.000000) scale(0.100000,-0.100000)"
fill="#000000" stroke="none">
<path d="M450 5272 c0 -4 17 -28 38 -53 20 -25 48 -60 62 -78 14 -18 39 -50
55 -71 62 -79 197 -281 296 -445 16 -27 35 -59 42 -70 7 -11 21 -33 32 -50 11
-16 27 -42 35 -56 30 -52 163 -276 192 -324 54 -88 264 -457 313 -550 26 -49
51 -94 55 -100 4 -5 35 -64 70 -130 35 -66 95 -178 133 -250 126 -234 407
-796 407 -813 0 -20 -108 90 -245 248 -16 19 -142 163 -280 320 -138 157 -316
362 -395 455 -80 94 -147 172 -150 175 -3 3 -18 21 -34 40 -15 19 -47 55 -70
80 -197 213 -592 712 -781 986 -97 140 -146 206 -151 202 -2 -3 25 -57 61
-121 36 -64 65 -119 65 -122 0 -3 11 -23 24 -44 43 -68 101 -181 462 -901 332
-662 456 -904 558 -1095 24 -44 59 -109 78 -145 19 -36 68 -128 108 -205 40
-77 106 -203 146 -280 40 -77 106 -205 146 -285 70 -138 78 -150 178 -250 96
-97 179 -171 248 -223 52 -39 95 -82 150 -152 30 -38 60 -74 66 -80 6 -5 24
-28 41 -50 16 -22 75 -94 130 -160 121 -145 390 -482 438 -550 10 -14 21 -25
25 -25 4 1 27 28 52 61 25 34 53 71 64 83 10 11 73 93 140 181 68 88 148 194
180 235 130 169 374 501 486 659 47 67 88 121 91 121 3 0 0 -37 -7 -82 -28
-185 -45 -330 -40 -336 6 -5 21 10 97 99 26 30 104 121 175 203 71 82 162 190
202 240 40 50 80 100 89 111 39 46 63 90 88 158 51 137 74 193 165 402 50 116
125 289 166 385 42 96 84 193 94 215 10 22 30 69 45 105 15 36 38 88 50 115
13 28 50 113 83 190 33 77 78 181 100 230 21 50 69 158 105 240 79 181 163
366 246 538 33 71 61 130 61 132 0 1 22 49 49 106 91 195 143 318 139 330 -2
7 -21 -21 -43 -61 -21 -41 -45 -88 -55 -105 -9 -16 -32 -57 -50 -90 -19 -33
-58 -102 -87 -153 -30 -51 -60 -104 -68 -118 -15 -30 -136 -221 -214 -338 -88
-131 -332 -456 -500 -664 -86 -107 -165 -206 -176 -221 -11 -15 -43 -54 -71
-87 -28 -32 -57 -68 -65 -80 -8 -11 -30 -41 -50 -65 -177 -213 -514 -632 -600
-744 -58 -77 -345 -420 -534 -640 -151 -175 -378 -455 -402 -495 -9 -17 -20
-30 -23 -30 -3 0 -42 47 -86 103 -45 56 -114 143 -155 192 -135 166 -344 420
-349 425 -3 3 -50 59 -104 125 -54 66 -117 140 -140 164 -24 26 -34 41 -23 37
11 -3 29 -9 42 -12 13 -3 77 -68 146 -147 68 -77 129 -145 135 -151 32 -33
331 -385 394 -465 41 -52 91 -112 110 -134 l36 -39 129 158 c72 87 137 165
145 173 15 17 107 127 194 235 27 34 52 63 56 66 4 3 32 39 62 80 31 41 66 86
78 100 12 14 33 39 46 56 13 17 168 318 345 670 369 735 578 1144 691 1354 19
36 57 106 83 155 26 50 51 95 55 100 4 6 31 55 60 110 29 55 72 135 96 177 24
43 44 80 44 83 0 10 133 220 196 309 79 111 201 271 232 303 36 39 14 46 -31
11 -23 -18 -46 -36 -52 -40 -5 -4 -23 -18 -40 -31 -16 -13 -88 -68 -160 -122
-71 -54 -164 -126 -205 -160 -95 -77 -203 -159 -355 -267 -66 -47 -149 -117
-185 -155 -62 -66 -256 -309 -418 -525 -42 -57 -82 -110 -89 -118 -81 -102
-103 -130 -123 -160 -39 -56 -236 -310 -397 -510 -298 -373 -423 -517 -433
-498 -4 7 -10 66 -14 131 -6 123 -15 146 -76 208 -8 8 -37 42 -65 74 -48 57
-214 245 -225 255 -3 3 -66 75 -140 160 -165 189 -512 583 -520 590 -3 3 -70
79 -150 170 -205 236 -268 292 -490 442 -185 124 -389 266 -400 278 -3 3 -39
31 -80 62 -41 31 -91 71 -111 90 -89 82 -274 238 -283 238 -3 0 -6 -3 -6 -8z
m3496 -2294 c-9 -13 -28 -41 -43 -63 -35 -54 -127 -177 -186 -250 -69 -86 -69
-85 -128 -161 -78 -102 -251 -318 -259 -324 -3 -3 -39 -45 -80 -95 -41 -49
-79 -95 -85 -101 -5 -6 -52 -61 -104 -123 -52 -61 -100 -111 -107 -111 -7 0
-26 17 -41 38 -15 20 -86 109 -158 197 -194 238 -331 424 -379 515 -22 41 341
-341 464 -489 88 -106 102 -121 114 -121 7 0 27 21 45 46 18 25 41 53 50 62 9
9 44 48 76 87 33 38 107 124 165 191 58 66 148 170 200 230 52 60 97 111 100
114 3 3 30 32 60 65 172 188 303 325 308 321 3 -3 -3 -16 -12 -28z"/>
<path d="M4109 4561 c-102 -69 -237 -162 -300 -206 -63 -43 -144 -100 -180
-125 -61 -41 -249 -179 -480 -352 -50 -38 -95 -68 -101 -68 -10 0 -126 71
-293 178 -38 25 -95 61 -125 80 -30 20 -208 137 -396 261 -187 124 -364 241
-392 259 -84 53 -102 55 -58 4 26 -29 195 -234 236 -285 56 -70 494 -593 509
-608 9 -8 133 -158 275 -332 142 -174 266 -317 274 -317 38 0 411 465 694 864
32 46 77 109 170 239 35 48 87 122 116 165 29 42 91 133 139 202 114 167 117
170 107 169 -5 -1 -93 -58 -195 -128z"/>
</g>
</svg>
