<?xml version="1.0" standalone="no"?>
<!DOCTYPE svg PUBLIC "-//W3C//DTD SVG 20010904//EN"
 "http://www.w3.org/TR/2001/REC-SVG-20010904/DTD/svg10.dtd">
<svg version="1.0" xmlns="http://www.w3.org/2000/svg"
 width="434.000000pt" height="432.000000pt" viewBox="0 0 434.000000 432.000000"
 preserveAspectRatio="xMidYMid meet">

<g transform="translate(0.000000,432.000000) scale(0.100000,-0.100000)"
fill="#000000" stroke="none">
<path d="M860 4284 c-381 -55 -659 -280 -774 -627 -55 -165 -56 -205 -56
-1497 0 -1292 1 -1332 56 -1497 91 -275 299 -488 564 -578 182 -62 132 -60
1520 -60 1396 0 1344 -2 1528 63 262 93 461 297 552 567 60 178 61 202 58
1555 -3 1123 -5 1232 -21 1313 -86 428 -375 698 -814 761 -98 14 -262 16
-1315 15 -960 -1 -1222 -4 -1298 -15z m1570 -744 c328 -46 533 -195 613 -445
l22 -70 0 -865 0 -865 -23 -80 c-36 -123 -94 -207 -196 -282 -162 -120 -367
-173 -665 -173 -299 0 -508 56 -677 181 -68 50 -108 99 -149 184 -53 108 -69
219 -62 433 5 199 23 286 80 395 40 77 155 195 222 230 28 13 156 62 285 107
129 45 267 93 305 107 39 14 111 40 162 58 50 19 104 40 120 49 45 23 103 86
129 141 21 43 24 65 24 160 0 95 -3 117 -24 160 -59 124 -210 195 -416 195
-169 0 -275 -34 -345 -112 -44 -49 -85 -137 -85 -184 0 -14 -5 -34 -10 -45
-10 -18 -23 -19 -218 -19 -149 0 -211 3 -220 12 -32 32 3 281 55 385 41 83
149 188 248 240 83 43 221 88 315 102 76 12 431 12 510 1z"/>
<path d="M2603 2120 c-17 -26 -55 -45 -172 -85 -532 -183 -554 -194 -629 -305
-48 -72 -56 -113 -50 -249 4 -86 9 -104 38 -160 55 -102 122 -139 293 -162 78
-10 116 -10 194 0 155 20 228 56 282 137 58 89 62 117 59 499 -2 279 -5 342
-15 325z"/>
</g>
</svg>
