<?xml version="1.0" standalone="no"?>
<!DOCTYPE svg PUBLIC "-//W3C//DTD SVG 20010904//EN"
 "http://www.w3.org/TR/2001/REC-SVG-20010904/DTD/svg10.dtd">
<svg version="1.0" xmlns="http://www.w3.org/2000/svg"
 width="747.000000pt" height="543.000000pt" viewBox="0 0 747.000000 543.000000"
 preserveAspectRatio="xMidYMid meet">

<g transform="translate(0.000000,543.000000) scale(0.100000,-0.100000)"
fill="#000000" stroke="none">
<path d="M962 5272 c-118 -142 -282 -375 -370 -527 -112 -191 -248 -483 -312
-665 -7 -19 -16 -44 -20 -55 -29 -70 -107 -350 -131 -470 -82 -409 -106 -792
-74 -1155 40 -446 127 -811 287 -1200 160 -390 374 -743 645 -1062 l74 -88
3190 0 c1754 0 3189 2 3189 5 0 2 -38 50 -85 107 -47 56 -118 147 -157 202
-39 56 -78 107 -87 113 -12 10 -611 13 -2924 13 l-2909 0 -30 34 c-44 50 -203
279 -260 376 -86 144 -183 341 -240 485 -11 28 -29 72 -40 98 -77 191 -159
534 -200 837 -17 129 -17 650 0 795 31 254 105 578 174 765 11 30 33 89 48
130 44 120 133 311 196 422 20 34 45 78 56 97 57 100 225 344 272 394 l25 27
2914 0 2915 0 72 103 c40 56 115 152 167 214 51 62 93 115 93 118 0 3 -1435 5
-3190 5 l-3190 0 -98 -118z"/>
<path d="M1629 4358 c-217 -260 -354 -501 -466 -823 -135 -388 -170 -842 -96
-1255 79 -441 260 -834 540 -1173 l65 -77 2561 2 c1701 2 2561 6 2560 13 -1 6
-25 64 -53 130 -28 66 -62 154 -76 195 -14 41 -30 80 -36 87 -8 10 -479 13
-2374 13 l-2363 0 -44 63 c-140 195 -265 474 -318 707 -80 351 -67 749 34
1085 29 94 100 271 135 335 67 122 96 171 140 235 l48 70 2364 3 c1645 1 2367
5 2376 13 7 5 21 38 32 72 11 34 45 123 76 197 31 74 58 140 59 145 1 7 -858
11 -2559 13 l-2562 2 -43 -52z"/>
<path d="M2232 3370 c-90 -111 -158 -260 -199 -435 -22 -89 -24 -323 -4 -415
19 -89 49 -184 79 -250 32 -68 122 -207 154 -237 l24 -23 2090 0 c1149 0 2095
0 2103 0 10 0 12 9 7 38 -13 77 -46 338 -46 370 l0 32 -1954 0 c-1716 0 -1956
2 -1969 15 -22 21 -44 98 -56 185 -15 115 21 306 63 332 6 4 890 8 1964 8
l1952 0 0 33 c0 31 33 292 46 370 l7 37 -2106 0 -2106 0 -49 -60z"/>
</g>
</svg>
